<?xml version="1.0" encoding="UTF-8"?>
<!-- Generator: Adobe Illustrator 16.0.0, SVG Export Plug-In . SVG Version: 6.00 Build 0)  -->
<svg width="84" height="84" enable-background="new -21.5 -19.5 622 266" version="1.1" viewBox="-21.5 -19.5 84 84" xml:space="preserve" xmlns="http://www.w3.org/2000/svg">

<g transform="translate(-29,-31)" fill="#3b589d">
	<path d="m57.689 47.141-0.432 5.749h-5.605v19.257h-7.377v-19.257h-3.734v-5.749h3.734v-5.556s-0.264-6.364 7.377-6.708c3.714-0.166 6.807 0.671 6.807 0.671l-0.785 5.652s-6.021-1.866-6.021 1.771v4.169z"/>
	<path d="m49.499 95.275c-23.033 0-41.774-18.741-41.774-41.776s18.741-41.774 41.774-41.774c23.035 0 41.776 18.739 41.776 41.774s-18.741 41.776-41.776 41.776zm0-77.811c-19.87 0-36.035 16.165-36.035 36.035s16.165 36.036 36.035 36.036c19.872 0 36.036-16.166 36.036-36.036s-16.164-36.035-36.036-36.035z"/>
</g>









</svg>
