<?xml version="1.0" encoding="UTF-8"?>
<!-- Generator: Adobe Illustrator 16.0.0, SVG Export Plug-In . SVG Version: 6.00 Build 0)  -->
<svg width="84" height="84" enable-background="new -21.5 -19.5 622 266" version="1.1" viewBox="-21.5 -19.5 84 84" xml:space="preserve" xmlns="http://www.w3.org/2000/svg">



<linearGradient id="SVGID_1_" x1="627.47" x2="686.53" y1="-353.03" y2="-293.97" gradientTransform="matrix(1,0,0,-1,-636.5,-301)" gradientUnits="userSpaceOnUse">
	<stop stop-color="#FFBD00" offset="0"/>
	<stop stop-color="#CA3744" offset=".4002"/>
	<stop stop-color="#803DDF" offset="1"/>
</linearGradient>
<path d="m38.643 9.955c-0.487-1.257-1.145-2.326-2.207-3.392-1.065-1.062-2.133-1.72-3.393-2.209-1.219-0.471-2.611-0.796-4.648-0.888-2.041-0.095-2.694-0.115-7.895-0.115s-5.855 0.021-7.896 0.115c-2.036 0.092-3.428 0.417-4.646 0.888-1.262 0.489-2.328 1.146-3.395 2.209-1.062 1.064-1.718 2.135-2.205 3.392-0.474 1.219-0.8 2.611-0.892 4.648-0.094 2.042-0.117 2.694-0.117 7.896s0.023 5.853 0.117 7.896c0.092 2.039 0.418 3.431 0.892 4.647 0.487 1.26 1.143 2.329 2.205 3.392 1.065 1.065 2.133 1.721 3.395 2.211 1.219 0.472 2.609 0.797 4.646 0.891 2.041 0.091 2.697 0.115 7.896 0.115s5.854-0.024 7.895-0.115c2.037-0.094 3.431-0.419 4.648-0.891 1.26-0.49 2.326-1.146 3.393-2.211 1.062-1.062 1.72-2.132 2.207-3.392 0.478-1.218 0.796-2.608 0.89-4.647 0.096-2.043 0.117-2.694 0.117-7.896s-0.021-5.854-0.117-7.896c-0.095-2.037-0.414-3.429-0.89-4.648zm-2.555 20.283c-0.086 1.865-0.397 2.88-0.662 3.556-0.346 0.894-0.76 1.53-1.432 2.199-0.672 0.671-1.307 1.086-2.201 1.437-0.678 0.262-1.688 0.57-3.555 0.656-2.021 0.094-2.625 0.112-7.738 0.112-5.115 0-5.721-0.019-7.738-0.112-1.869-0.086-2.879-0.396-3.557-0.656-0.893-0.351-1.529-0.766-2.199-1.437-0.67-0.669-1.086-1.306-1.434-2.199-0.26-0.676-0.572-1.69-0.66-3.556-0.092-2.021-0.109-2.625-0.109-7.739 0-5.112 0.019-5.718 0.109-7.735 0.088-1.867 0.4-2.882 0.66-3.557 0.348-0.894 0.762-1.533 1.434-2.201 0.67-0.67 1.308-1.087 2.199-1.433 0.678-0.265 1.688-0.575 3.557-0.66 2.021-0.092 2.623-0.111 7.738-0.111 5.113 0 5.719 0.021 7.738 0.111 1.867 0.085 2.877 0.396 3.555 0.66 0.896 0.346 1.529 0.763 2.201 1.433 0.672 0.668 1.086 1.309 1.432 2.201 0.265 0.675 0.576 1.688 0.662 3.557 0.09 2.019 0.109 2.623 0.109 7.735 0 5.114-0.019 5.718-0.109 7.739zm-15.588-17.569c-5.434 0-9.834 4.397-9.834 9.83s4.4 9.834 9.834 9.834c5.432 0 9.832-4.401 9.832-9.834s-4.4-9.83-9.832-9.83zm0 16.215c-3.527 0-6.383-2.858-6.383-6.385 0-3.524 2.854-6.383 6.383-6.383 3.525 0 6.381 2.857 6.381 6.383 0 3.524-2.856 6.385-6.381 6.385zm12.52-16.605c0 1.268-1.028 2.299-2.299 2.299-1.27 0-2.297-1.031-2.297-2.299 0-1.271 1.027-2.301 2.297-2.301 1.27 1e-3 2.299 1.032 2.299 2.301zm-12.522-31.554c-23.035 0-41.773 18.739-41.773 41.774s18.738 41.776 41.773 41.776c23.037 0 41.777-18.741 41.777-41.776s-18.74-41.774-41.777-41.774zm0 77.81c-19.869 0-36.033-16.166-36.033-36.036s16.164-36.035 36.033-36.035c19.871 0 36.037 16.165 36.037 36.035s-16.166 36.036-36.037 36.036z" fill="url(#SVGID_1_)"/>






</svg>
