<svg xmlns="http://www.w3.org/2000/svg" width="84" height="84" viewBox="-21.5 -19.5 84 84"><path fill="#6e370a" d="M20.5 3.35c-5.201 0-5.856.022-7.896.116-2.036.092-3.429.416-4.647.887a9.41 9.41 0 0 0-3.394 2.209 9.395 9.395 0 0 0-2.206 3.392c-.474 1.22-.798 2.612-.89 4.649-.094 2.042-.117 2.692-.117 7.894s.023 5.854.117 7.897c.092 2.039.416 3.432.89 4.648a9.355 9.355 0 0 0 2.206 3.39 9.386 9.386 0 0 0 3.394 2.211c1.219.472 2.61.797 4.647.891 2.04.091 2.697.115 7.896.115s5.854-.024 7.894-.115c2.038-.094 3.432-.419 4.649-.89a9.413 9.413 0 0 0 3.393-2.211 9.352 9.352 0 0 0 2.207-3.391c.478-1.218.796-2.61.89-4.648.096-2.043.117-2.695.117-7.897s-.02-5.852-.117-7.894c-.095-2.037-.414-3.43-.89-4.649a9.418 9.418 0 0 0-2.207-3.392 9.417 9.417 0 0 0-3.393-2.21c-1.22-.47-2.611-.794-4.648-.886C26.354 3.37 25.7 3.35 20.5 3.35zm0 3.452c5.113 0 5.72.02 7.738.11 1.867.084 2.877.395 3.555.66.896.345 1.53.763 2.201 1.433.672.668 1.086 1.31 1.432 2.201.265.675.576 1.688.662 3.557.09 2.019.11 2.622.11 7.734 0 5.114-.02 5.72-.11 7.74-.086 1.865-.397 2.88-.662 3.557a5.864 5.864 0 0 1-1.432 2.197 5.99 5.99 0 0 1-2.201 1.438c-.678.262-1.688.57-3.555.656-2.02.094-2.625.111-7.738.111-5.115 0-5.721-.018-7.738-.111-1.87-.086-2.879-.396-3.557-.656a5.975 5.975 0 0 1-2.2-1.438 5.925 5.925 0 0 1-1.433-2.197c-.26-.676-.572-1.69-.66-3.557-.092-2.02-.11-2.626-.11-7.74 0-5.112.02-5.717.11-7.734.088-1.867.4-2.882.66-3.557.348-.894.762-1.533 1.434-2.201a5.932 5.932 0 0 1 2.2-1.434c.677-.265 1.687-.575 3.556-.66 2.02-.092 2.623-.11 7.738-.11zm10.221 3.176a2.298 2.298 0 0 0-2.297 2.3 2.298 2.298 0 1 0 4.596 0 2.3 2.3 0 0 0-2.299-2.3zM20.5 12.669c-5.434 0-9.834 4.395-9.834 9.828s4.4 9.834 9.834 9.834c5.432 0 9.832-4.4 9.832-9.834s-4.4-9.828-9.832-9.828zm0 3.445a6.385 6.385 0 0 1 0 12.77 6.384 6.384 0 0 1-6.383-6.387 6.381 6.381 0 0 1 6.383-6.383z"/></svg>