<svg width="84" height="84" enable-background="new -21.5 -19.5 622 266" version="1.1" viewBox="-21.5 -19.5 84 84" xmlns="http://www.w3.org/2000/svg"><path d="m20.5 3.3506c-5.201 0-5.8555 0.02124-7.8965 0.11524-2.036 0.092-3.4285 0.41572-4.6465 0.88672-1.262 0.489-2.3275 1.146-3.3945 2.209-1.062 1.064-1.7181 2.1356-2.2051 3.3926-0.474 1.219-0.79862 2.6114-0.89062 4.6484-0.094 2.042-0.11719 2.6925-0.11719 7.8945s0.02319 5.8535 0.11719 7.8965c0.092 2.039 0.41662 3.4324 0.89062 4.6484 0.487 1.26 1.1431 2.3276 2.2051 3.3906 1.065 1.065 2.1325 1.7209 3.3945 2.2109 1.219 0.472 2.6095 0.79662 4.6465 0.89062 2.041 0.091 2.6975 0.11524 7.8965 0.11524s5.8535-0.02423 7.8945-0.11524c2.037-0.094 3.4314-0.41862 4.6484-0.89062 1.26-0.49 2.3256-1.1459 3.3926-2.2109 1.062-1.062 1.72-2.1306 2.207-3.3906 0.478-1.218 0.79662-2.6094 0.89062-4.6484 0.096-2.043 0.11719-2.6945 0.11719-7.8965s-0.02119-5.8525-0.11719-7.8945c-0.095-2.037-0.41462-3.4294-0.89062-4.6484-0.487-1.257-1.145-2.3266-2.207-3.3926-1.065-1.062-2.1326-1.72-3.3926-2.209-1.219-0.471-2.6114-0.79472-4.6484-0.88672-2.041-0.095-2.6935-0.11524-7.8945-0.11524zm0 3.4512c5.113 0 5.7193 0.019375 7.7383 0.10938 1.867 0.085 2.8767 0.39616 3.5547 0.66016 0.896 0.346 1.5292 0.76359 2.2012 1.4336 0.672 0.668 1.0856 1.3092 1.4316 2.2012 0.265 0.675 0.57611 1.6876 0.66211 3.5566 0.09 2.019 0.10938 2.6224 0.10938 7.7344 0 5.114-0.01937 5.7192-0.10938 7.7402-0.086 1.865-0.39711 2.8806-0.66211 3.5566-0.346 0.894-0.75964 1.5283-1.4316 2.1973-0.672 0.671-1.3072 1.0865-2.2012 1.4375-0.678 0.262-1.6877 0.57025-3.5547 0.65625-2.021 0.094-2.6253 0.11133-7.7383 0.11133-5.115 0-5.7213-0.01833-7.7383-0.11133-1.869-0.086-2.8786-0.39625-3.5566-0.65625-0.893-0.351-1.5292-0.7665-2.1992-1.4375-0.67-0.669-1.0856-1.3043-1.4336-2.1973-0.26-0.676-0.57216-1.6906-0.66016-3.5566-0.092-2.021-0.10938-2.6262-0.10938-7.7402 0-5.112 0.01937-5.7174 0.10938-7.7344 0.088-1.867 0.40016-2.8816 0.66016-3.5566 0.348-0.894 0.76159-1.5332 1.4336-2.2012 0.67-0.67 1.3082-1.0876 2.1992-1.4336 0.678-0.265 1.6876-0.57516 3.5566-0.66016 2.021-0.092 2.6233-0.10938 7.7383-0.10938zm10.221 3.1758c-1.27 0-2.2969 1.0298-2.2969 2.3008 0 1.268 1.0269 2.2988 2.2969 2.2988 1.271 0 2.2988-1.0308 2.2988-2.2988 0-1.269-1.0288-2.2998-2.2988-2.3008zm-10.221 2.6914c-5.434 0-9.834 4.3951-9.834 9.8281s4.4 9.834 9.834 9.834c5.432 0 9.832-4.401 9.832-9.834s-4.4-9.8281-9.832-9.8281zm0 3.4453c3.525 0 6.3809 2.8568 6.3809 6.3828 0 3.524-2.8559 6.3867-6.3809 6.3867-3.527 0-6.3828-2.8597-6.3828-6.3867 0-3.524 2.8538-6.3828 6.3828-6.3828z" fill="#6e370a"/></svg>